<?xml version="1.0" standalone="no"?>
<!DOCTYPE svg PUBLIC "-//W3C//DTD SVG 20010904//EN"
 "http://www.w3.org/TR/2001/REC-SVG-20010904/DTD/svg10.dtd">
<svg version="1.0" xmlns="http://www.w3.org/2000/svg"
 width="1686.000000pt" height="1139.000000pt" viewBox="0 0 1686.000000 1139.000000"
 preserveAspectRatio="xMidYMid meet">
<metadata>
Created by potrace 1.14, written by Peter Selinger 2001-2017
</metadata>
<g transform="translate(0.000000,1139.000000) scale(0.100000,-0.100000)"
fill="#000000" stroke="none">
<path d="M2650 5533 c-292 -29 -557 -92 -794 -189 -701 -287 -1244 -830 -1530
-1530 -78 -193 -135 -403 -171 -634 -22 -144 -31 -504 -16 -666 62 -654 333
-1227 800 -1694 512 -512 1143 -784 1866 -807 782 -24 1496 257 2045 807 550
549 831 1263 807 2045 -23 723 -295 1354 -807 1866 -237 237 -466 401 -755
540 -296 142 -596 226 -924 259 -95 9 -439 12 -521 3z m150 -170 c7 -7 12
-5112 5 -5152 l-6 -34 -107 6 c-202 12 -473 71 -692 152 -675 248 -1227 775
-1504 1438 -160 381 -231 818 -197 1207 71 809 497 1524 1172 1970 115 76 295
173 419 225 199 85 484 160 700 184 52 6 109 13 125 15 31 4 76 -2 85 -11z
m390 -3 c294 -37 566 -117 835 -249 281 -137 491 -286 705 -501 487 -486 762
-1146 762 -1830 1 -692 -269 -1344 -762 -1840 -346 -349 -813 -604 -1286 -704
-143 -30 -333 -56 -410 -56 l-54 0 0 89 0 90 43 5 c23 3 94 10 157 16 325 31
670 152 982 342 120 74 304 211 318 239 29 54 -10 129 -67 129 -31 0 -49 -11
-133 -79 -192 -156 -480 -306 -740 -385 -162 -49 -473 -101 -533 -89 l-27 5 2
222 3 221 55 7 c269 37 386 67 557 140 115 49 268 137 373 215 96 72 281 257
353 353 167 225 281 486 333 765 27 142 27 478 0 620 -69 367 -225 670 -480
934 -178 183 -375 317 -601 410 -121 50 -314 104 -415 116 -30 3 -83 11 -117
17 l-63 10 0 224 0 223 80 -4 c446 -24 938 -229 1306 -546 119 -102 214 -205
319 -344 103 -138 159 -228 234 -386 230 -479 281 -1013 145 -1538 -71 -272
-236 -602 -405 -811 -68 -84 -79 -102 -79 -133 0 -57 75 -96 130 -67 28 15
180 221 255 345 477 790 454 1807 -58 2575 -91 137 -180 244 -311 375 -317
316 -680 521 -1119 634 -103 27 -176 39 -432 69 l-60 7 -3 88 -3 87 63 0 c35
0 102 -5 148 -10z m33 -999 c331 -69 666 -263 884 -512 437 -502 529 -1209
232 -1800 -149 -298 -420 -569 -718 -718 -172 -87 -402 -153 -570 -166 l-71
-5 0 224 0 225 58 11 c293 58 467 141 643 308 160 152 248 287 313 482 49 148
59 226 53 415 -8 227 -50 373 -163 555 -175 284 -467 485 -784 539 -36 7 -77
14 -92 17 l-28 6 0 225 0 226 73 -6 c39 -4 116 -15 170 -26z m-126 -616 c344
-73 627 -324 736 -655 39 -117 60 -261 53 -359 -14 -181 -75 -366 -166 -501
-103 -154 -275 -296 -443 -367 -78 -33 -226 -72 -274 -73 l-23 0 0 179 0 179
67 16 c161 41 322 167 400 312 54 103 73 179 73 299 0 111 -18 191 -62 280
-79 159 -198 260 -378 321 l-95 32 -3 176 -2 176 24 0 c14 0 55 -7 93 -15z m2
-561 c133 -67 224 -193 250 -346 14 -83 -4 -182 -49 -275 -50 -102 -184 -209
-287 -229 l-33 -7 0 447 0 446 24 0 c13 0 56 -16 95 -36z"/>
<path d="M2210 5080 c-34 -34 -27 -90 18 -147 87 -109 254 -233 315 -233 35 0
77 40 77 75 0 42 -16 61 -89 109 -69 44 -126 96 -192 174 -30 35 -42 42 -73
42 -23 0 -43 -7 -56 -20z"/>
<path d="M1715 4878 c-31 -17 -45 -39 -45 -73 0 -52 19 -67 94 -76 102 -13
144 -27 185 -65 120 -108 101 -284 -39 -369 -33 -20 -63 -42 -67 -48 -5 -7
-10 -274 -13 -594 -3 -320 -9 -585 -13 -590 -5 -4 -164 -10 -354 -13 -314 -5
-346 -7 -357 -23 -9 -11 -15 -63 -18 -145 -4 -100 -9 -137 -26 -174 -54 -123
-226 -128 -292 -8 l-25 45 -5 378 c-5 360 -6 379 -24 393 -31 22 -83 18 -111
-11 l-25 -24 0 -374 c0 -412 2 -432 62 -521 28 -43 68 -75 164 -132 17 -10 19
-24 19 -109 l0 -97 -35 -26 c-66 -49 -168 -157 -175 -185 -15 -59 41 -119 95
-102 12 4 50 35 84 69 168 166 395 202 600 93 166 -88 266 -277 266 -502 0
-33 6 -50 22 -65 20 -18 35 -20 172 -20 263 0 348 -38 427 -190 19 -36 24 -60
24 -125 0 -70 -4 -87 -32 -141 -39 -76 -75 -107 -179 -154 -45 -21 -84 -45
-87 -55 -4 -9 -7 -77 -7 -151 0 -130 1 -136 25 -159 15 -16 36 -25 55 -25 19
0 40 9 55 25 22 21 25 33 25 100 0 42 4 85 10 95 5 10 34 32 63 49 75 43 161
137 200 218 31 66 32 72 32 199 l0 130 -37 76 c-28 55 -55 92 -101 134 -105
99 -200 134 -359 134 -125 0 -145 8 -152 57 -26 176 -80 288 -196 403 -142
142 -265 190 -488 190 l-131 0 -7 34 c-11 61 2 89 54 116 66 35 134 100 162
157 18 37 26 71 30 145 3 54 10 101 14 105 9 9 487 17 533 8 24 -4 34 -13 42
-37 18 -50 40 -68 83 -68 77 0 72 -41 78 698 l5 657 71 70 c38 39 81 93 95
120 21 45 24 63 24 170 0 117 -1 121 -34 183 -60 110 -160 182 -282 202 -81
13 -129 12 -154 -2z"/>
<path d="M1504 2698 c-45 -21 -59 -107 -24 -151 26 -33 63 -41 99 -23 34 18
41 33 41 92 0 74 -55 112 -116 82z"/>
<path d="M10082 3715 c-142 -40 -249 -143 -293 -286 -23 -73 -26 -219 -6 -296
20 -77 74 -159 137 -208 71 -54 132 -85 294 -147 169 -64 240 -102 296 -158
68 -67 84 -108 88 -221 3 -82 1 -104 -18 -148 -28 -65 -112 -143 -176 -165
-72 -24 -255 -22 -313 5 -115 51 -175 138 -189 269 l-7 75 -50 -2 c-106 -5
-115 -19 -97 -136 27 -178 153 -316 327 -362 78 -20 281 -20 358 0 128 33 225
113 284 233 l38 76 0 146 0 146 -38 77 c-63 127 -161 195 -442 307 -265 105
-345 190 -345 364 0 126 59 218 175 272 42 20 66 24 156 24 98 0 110 -2 167
-31 97 -48 151 -128 160 -236 2 -35 10 -67 16 -72 13 -11 115 6 135 22 21 18
8 136 -24 205 -38 84 -71 126 -131 172 -93 70 -139 83 -304 87 -105 2 -159 -1
-198 -12z"/>
<path d="M11933 3715 c-81 -22 -131 -52 -190 -111 -74 -74 -115 -163 -121
-264 -2 -44 0 -80 5 -83 20 -13 128 -25 139 -16 6 5 14 40 16 78 6 82 36 141
99 195 55 47 116 66 209 66 135 0 224 -50 276 -155 132 -270 -125 -759 -648
-1232 l-138 -125 0 -47 c0 -26 5 -52 12 -59 17 -17 949 -17 966 0 16 16 16
100 0 116 -9 9 -102 12 -358 12 -191 0 -349 2 -351 5 -3 2 56 66 131 142 281
285 448 531 538 791 35 102 36 113 36 237 0 110 -3 138 -22 186 -49 123 -129
207 -239 250 -75 29 -279 37 -360 14z"/>
<path d="M13212 3715 c-143 -40 -249 -143 -293 -286 -18 -57 -19 -99 -19 -604
0 -512 1 -546 20 -606 39 -125 142 -234 263 -276 74 -26 300 -26 374 0 121 42
224 151 263 276 19 60 20 94 20 606 0 512 -1 546 -20 606 -38 123 -132 224
-252 271 -70 28 -276 35 -356 13z m230 -136 c102 -21 169 -75 215 -174 l28
-60 0 -520 0 -520 -28 -61 c-34 -74 -84 -125 -152 -156 -69 -31 -199 -32 -266
-1 -69 31 -122 85 -155 155 l-29 63 0 520 0 520 28 60 c45 96 99 143 198 169
67 18 94 19 161 5z"/>
<path d="M5912 3688 c-16 -16 -15 -103 1 -117 9 -7 85 -12 208 -13 l194 -3 3
-789 c1 -563 5 -793 13 -803 15 -18 123 -18 138 0 8 10 12 240 13 803 l3 789
194 3 c123 1 199 6 208 13 16 14 17 101 1 117 -17 17 -959 17 -976 0z"/>
<path d="M7162 3688 c-17 -17 -18 -1708 0 -1726 20 -20 619 -17 686 3 81 24
170 91 219 164 63 93 77 150 76 311 -1 150 -16 212 -71 293 -31 44 -108 120
-133 130 -10 4 -6 12 16 28 103 78 170 187 184 304 25 208 -62 381 -236 467
l-68 33 -330 3 c-254 2 -333 0 -343 -10z m655 -156 c66 -35 106 -75 139 -139
25 -51 29 -68 29 -143 0 -78 -3 -91 -35 -148 -37 -69 -69 -99 -146 -134 -44
-20 -68 -23 -227 -26 -99 -2 -199 -1 -223 3 l-44 6 0 298 c0 164 3 301 7 305
5 4 109 6 233 4 211 -3 228 -5 267 -26z m0 -760 c66 -35 110 -79 140 -140 26
-54 28 -65 28 -187 0 -111 -3 -137 -21 -176 -31 -66 -78 -114 -142 -146 l-57
-28 -225 0 -225 0 -3 340 c-1 187 0 346 3 353 4 11 49 13 233 10 213 -3 230
-5 269 -26z"/>
<path d="M8432 3688 c-9 -9 -12 -164 -12 -692 0 -748 1 -758 61 -862 33 -59
113 -135 171 -165 67 -34 147 -49 265 -49 184 0 263 26 366 120 64 58 111 144
127 229 6 33 10 320 10 731 0 571 -2 679 -14 689 -9 7 -40 11 -78 9 l-63 -3
-5 -705 -5 -705 -24 -49 c-31 -63 -82 -113 -145 -142 -44 -21 -66 -24 -166
-24 -94 0 -123 4 -160 21 -58 26 -115 81 -148 144 l-27 50 -5 705 -5 705 -65
3 c-42 2 -70 -2 -78 -10z"/>
<path d="M14610 3693 c-77 -28 -359 -149 -372 -161 -22 -19 -26 -130 -5 -138
7 -2 100 32 206 76 106 44 194 80 197 80 2 0 3 -327 2 -727 l-3 -728 -194 -3
c-123 -1 -199 -6 -208 -13 -16 -14 -17 -101 -1 -117 17 -17 959 -17 976 0 16
16 15 103 -1 117 -9 7 -85 12 -208 13 l-194 3 -3 789 c-1 563 -5 793 -13 803
-11 13 -146 18 -179 6z"/>
<path d="M15532 3688 c-17 -17 -17 -339 0 -356 16 -16 123 -16 136 1 6 7 13
60 14 118 l3 104 294 3 c162 1 298 -1 302 -5 3 -5 -137 -357 -312 -783 -175
-426 -317 -784 -316 -795 2 -17 10 -20 67 -23 36 -1 71 2 78 6 17 12 692 1661
692 1693 0 14 -5 30 -12 37 -17 17 -929 17 -946 0z"/>
</g>
</svg>
